<?xml version="1.0" encoding="UTF-8"?><svg id="Layer_1" xmlns="http://www.w3.org/2000/svg" viewBox="0 0 180 180"><defs><style>.cls-1{fill:#ce4d5e;}</style></defs><path class="cls-1" d="m87.87,2.69C46.51,2.69,12.86,36.34,12.86,77.7c0,23.65,11.55,46.23,30.26,59.88l44.15,39.32c1.6,1.42,3.64,2.17,5.71,2.17,1.19,0,2.39-.24,3.51-.75,3.08-1.38,5.07-4.45,5.07-7.83v-19.36c34.96-6.53,61.32-37.36,61.32-73.43,0-41.36-33.64-75.01-75-75.01Zm33.89,87.86h-23.51v23.51h-20.77v-23.51h-23.51v-20.77h23.51v-23.51h20.77v23.51h23.51v20.77Z"/></svg>