<?xml version="1.0" encoding="utf-8"?>
<!-- Generator: Adobe Illustrator 27.5.0, SVG Export Plug-In . SVG Version: 6.00 Build 0)  -->
<svg version="1.1" id="Layer_1" xmlns="http://www.w3.org/2000/svg" xmlns:xlink="http://www.w3.org/1999/xlink" x="0px" y="0px"
	 viewBox="0 0 180 180" style="enable-background:new 0 0 180 180;" xml:space="preserve">
<style type="text/css">
	.st0{fill:#4A9AD4;}
	.st1{fill:#F4EF90;}
</style>
<g>
	<path class="st0" d="M88.2,1.9c-41.5,0-75.3,33.8-75.3,75.3c0,23.7,11.6,46.4,30.4,60.1l44.3,39.5c1.6,1.4,3.7,2.2,5.7,2.2
		c1.2,0,2.4-0.2,3.5-0.8c3.1-1.4,5.1-4.5,5.1-7.9v-19.4c35.1-6.6,61.6-37.5,61.6-73.7C163.5,35.7,129.7,1.9,88.2,1.9z"/>
	<path class="st1" d="M112.5,56l-5.5-5.6c-2.4-2.4-5.6-3.8-9-3.8H76.2c-3.4,0-6.6,1.3-9,3.8L61.6,56C59.3,58.4,58,61.6,58,65v47.3
		c0,7,5.7,12.7,12.7,12.7h32.8c7,0,12.7-5.7,12.7-12.7V65C116.2,61.6,114.9,58.4,112.5,56L112.5,56z M100.1,88.3H89.6v10.6h-5V88.3
		H74v-5h10.6V72.8h5v10.6h10.6V88.3z"/>
	<path class="st1" d="M100.3,29.4c-0.1-1.2-1.2-2.2-2.4-2.2H75.4c-1.2,0-2.3,1-2.4,2.2l-1.1,12.2c-0.1,1.4,1,2.6,2.4,2.6h24.6
		c1.4,0,2.5-1.2,2.4-2.6L100.3,29.4z"/>
</g>
</svg>
