<?xml version="1.0" encoding="utf-8"?>
<!-- Generator: Adobe Illustrator 27.5.0, SVG Export Plug-In . SVG Version: 6.00 Build 0)  -->
<svg version="1.1" id="Layer_1" xmlns="http://www.w3.org/2000/svg" xmlns:xlink="http://www.w3.org/1999/xlink" x="0px" y="0px"
	 viewBox="0 0 180 180" style="enable-background:new 0 0 180 180;" xml:space="preserve">
<style type="text/css">
	.st0{fill:#4A9AD4;}
	.st1{fill:#F4EF90;}
</style>
<g>
	<path class="st0" d="M88.2,1.9c-41.5,0-75.3,33.8-75.3,75.3c0,23.7,11.6,46.4,30.4,60.1l44.3,39.5c1.6,1.4,3.7,2.2,5.7,2.2
		c1.2,0,2.4-0.2,3.5-0.8c3.1-1.4,5.1-4.5,5.1-7.9v-19.4c35.1-6.6,61.6-37.5,61.6-73.7C163.5,35.7,129.7,1.9,88.2,1.9z"/>
	<path class="st1" d="M79.3,91.3c0.4,11.2,0.8,22.4,1.2,33.6c0.1,1.8,0.1,3.5-1.7,4.6c-2.1,1.3-4.2,2.2-6.7,1.4
		c-0.8-0.2-1.6-0.6-2.3-1c-1.8-0.8-2.5-2.1-2.4-4c0.6-11.2,1.1-22.4,1.6-33.6c0.3-6.5,0.6-13,0.9-19.5c0.1-1.3-0.4-1.7-1.6-1.7
		c-0.7,0-1.4,0-2.1,0c-2.3-0.1-3.8-1.6-3.8-3.8c0-11.3,0-22.6,0-33.9c0-2.7,0-5.3,0-8c0-1.8,0.8-2.6,2.2-2.7c1.2,0,2.3,0.9,2.4,2.5
		c0.1,3.5,0,6.9,0,10.4c0,2.3,0.1,4.6,0.2,6.9c0,0.3,0.5,0.8,0.7,0.8c1,0.1,2.2,0.2,3.1-0.1c0.5-0.1,1-1.2,1-1.8
		c0-5.1-0.1-10.2-0.1-15.3c0-0.7,0.1-1.4,0.3-2c0.5-1,1.4-1.5,2.5-1.1c1.2,0.4,1.8,1.4,1.8,2.7c0,4.2,0,8.4,0,12.6c0,0.5,0,1,0,1.6
		c0.1,3.8-0.6,3.2,3.4,3.3c1.3,0,1.6-0.4,1.6-1.7c-0.1-5.4-0.1-10.7,0-16.1c0-0.9,0.4-1.9,1-2.5c0.4-0.4,1.7-0.5,2.1-0.2
		c0.7,0.5,1.3,1.4,1.4,2.2c0.2,2.5,0.1,5,0.1,7.6c0,3.6-0.1,7.2,0,10.7c0.1,3,0.3,6,0.3,9c0.1,4.6,0,9.2,0,13.8
		c0,3.2-1.5,4.8-4.6,4.9c-3.3,0.2-3.4,0.2-3.3,3.6c0.1,2.8,0.3,5.6,0.4,8.3C79.1,85.8,79.2,91.3,79.3,91.3L79.3,91.3z"/>
	<path class="st1" d="M99.8,20.9c2.1,1.6,4.4,3,6.3,4.8c5.2,4.9,7.9,10.9,7.8,18.1c-0.1,8.8,0,17.6,0,26.3c0,2-0.4,3.8-2.5,4.7
		c-0.7,0.3-1.5,0.4-2.3,0.4c-1.4-0.1-1.7,0.7-1.6,1.7c0.5,13.2,1.1,26.5,1.6,39.7c0.1,3.2,0.2,6.3,0.4,9.4c0.1,1.8-0.5,3-2,4
		c-3.2,2-5.9,2.1-9.1-0.1c-1.2-0.8-1.8-1.9-1.7-3.3c0.5-10.1,1-20.2,1.4-30.2c0.3-8.6,0.7-17.1,0.8-25.7C99,56.8,98.9,42.9,99,29.1
		c0-2.6,0-5.1,0-7.7C99.3,21.2,99.5,21.1,99.8,20.9L99.8,20.9z"/>
</g>
</svg>
